<?xml version="1.0" encoding="utf-8"?>
<!-- Svg Vector Icons : http://www.onlinewebfonts.com/icon -->
<!DOCTYPE svg PUBLIC "-//W3C//DTD SVG 1.1//EN" "http://www.w3.org/Graphics/SVG/1.1/DTD/svg11.dtd">
<svg version="1.1" xmlns="http://www.w3.org/2000/svg" xmlns:xlink="http://www.w3.org/1999/xlink" x="0px" y="0px" viewBox="0 0 256 256" enable-background="new 0 0 256 256" xml:space="preserve">
<metadata> Svg Vector Icons : http://www.onlinewebfonts.com/icon </metadata>
<g> <path fill="#f5c42e" d="M183.7,44.3c1.3,3.9,2.5,8.3,3.5,12.7c0.5,2.3,0.3,4.6-0.5,6.8c-8.8,23.1-73.3,83.8-163.7,73.4 c-5.5-0.6-10.5,3.7-10.4,9.2c0.4,21,24.5,54.8,68.6,62.4c52,9,171.9-48.9,131.6-142.9c-0.5-1.1-0.8-2.2-1.1-3.3 c-2.1-10-5.4-1.3-8.1-10.8c-1.3-4.4-6.3-8.5-10.4-6.4v-8C185.7,41.3,181.1,36.2,183.7,44.3z"/> <path fill="#621d49" d="M92.6,212.3c-4,0-7.9-0.3-11.8-0.9c-45.5-7.8-70.3-42.8-70.8-65c-0.1-3.4,1.3-6.6,3.8-8.9 c2.6-2.3,6-3.5,9.5-3.1c6.8,0.8,13.6,1.2,20.4,1.2c39,0,70.1-13,90.4-25c30.1-17.7,46.5-38.4,50.1-47.9c0.6-1.7,0.7-3.5,0.3-5.3 c-0.8-3.8-2-8-3.4-12.4c-0.9-2.9-1.3-5-0.1-6.7c1.1-1.7,3.1-1.8,4.8-1.9c1.7-0.1,3.8-0.2,6.2-1.5l3.8-2v9.1 c1.1,0.1,2.2,0.3,3.2,0.7c3.2,1.4,6,4.6,7.1,8.2c0.6,2.2,1.2,2.8,1.4,3c0.1,0.1,0.2,0.1,0.8,0.3c2.9,0.5,4.8,2,6,7.7 c0.2,1,0.5,1.9,0.9,2.8c18,41.9,3.6,73.7-11.7,93c-14.2,18-35.7,33.4-60.5,43.5C125.6,208.4,107.6,212.3,92.6,212.3z M21.9,139.7 c-1.7,0-3.3,0.6-4.5,1.8c-1.4,1.2-2.1,3-2.1,4.8c0.2,10.4,6.8,23.6,17.2,34.4c8.9,9.3,24.7,21.2,49.2,25.4 c15.6,2.7,37.8-0.9,59.4-9.7c24-9.8,44.7-24.6,58.3-41.9c9.7-12.2,15.7-25.5,17.9-39.3c2.5-15.5,0.1-31.7-7-48.3 c-0.5-1.2-0.9-2.5-1.2-3.8c-0.6-2.9-1.2-3.4-1.2-3.4c-0.2-0.1-0.4-0.1-0.6-0.1c-2.8-0.5-4.8-1.9-6.3-7c-0.6-2-2.3-4-4.1-4.8 c-0.9-0.4-1.8-0.4-2.5-0.1l-3.9,2v-8.5c-1.5,0.3-3,0.5-4.5,0.6l-0.3,0c0.1,0.4,0.2,0.9,0.5,1.6c1.5,4.6,2.7,9,3.5,12.9 c0.6,2.8,0.4,5.7-0.6,8.3c-2.5,6.5-8.7,15.1-17.2,23.6c-9.8,9.9-22,19.2-35.2,27c-24.4,14.3-64,30.2-114.1,24.5 C22.5,139.8,22.2,139.7,21.9,139.7L21.9,139.7z"/> <path fill="#621d49" d="M98.8,172.7c-23,0-48.2-7.5-75.5-22.4c-1.3-0.7-1.7-2.4-1-3.6c0.7-1.2,2.3-1.7,3.5-1 c41.1,22.5,77.2,27.5,107.4,15c10.6-4.4,20.6-11,29.5-19.7c7.2-7,13.8-15.3,19.5-24.7c9.9-16.1,14-30,14.1-30.2 c0.4-1.4,1.9-2.2,3.3-1.8c1.4,0.4,2.2,1.9,1.8,3.3c-0.2,0.6-4.3,14.6-14.6,31.3c-6,9.8-12.9,18.5-20.4,25.8 c-9.4,9.2-19.9,16.2-31.2,20.9C123.9,170.3,111.7,172.7,98.8,172.7L98.8,172.7z"/> <path fill="#621d49" d="M12.7,146.3c0.1,5.8,2,12.5,5.6,19.4c4.4-2.1,11.1-7.3,15-13.2c-0.4-5.1-1.6-10.1-3.8-14.8 c-2.1-0.2-4.3-0.4-6.5-0.6C17.5,136.5,12.5,140.8,12.7,146.3L12.7,146.3z M187.3,57.9c0.3,2,0.1,4-0.6,5.9 c-3.2,8.3-13.5,21.4-29.6,34.3c-2.9,36-56.5,95.7-102.8,101.9c8.5,4.2,17.5,7.2,26.9,8.8c9.8,1.7,21.9,1,34.9-1.8l70.4-61 l14.8-84.7L187.3,57.9z"/> <path fill="#f5c42e" d="M171.1,39.9c3.8,3.7,8.7,8.8,12.9,14.2c1.4,1.8,2.3,4,2.6,6.3c2.2,24.6-29.4,107.5-115.4,137.6 c-4.8,1.7-7.3,6.9-5.6,11.7c0.1,0.4,0.3,0.8,0.5,1.2c9.6,18.6,48.3,33.2,88.9,26.1c72.1-12.7,126-117.2,55.3-186.7 c-0.7-0.7-1.3-1.3-1.9-2.1c-7-9-19.1-22.5-25.3-29.2c-1.7-1.9-4.7-2-6.6-0.3c-0.2,0.2-0.4,0.4-0.6,0.6l-5.8,7.6 C167.1,30.8,167.5,36.4,171.1,39.9z"/> <path fill="#621d49" d="M133.8,241.3c-12.3,0-24.5-1.8-35.7-5.3c-16.7-5.3-29.3-14.1-34.4-24c-3-5.8-0.8-12.9,5-15.9 c0.5-0.3,1-0.5,1.5-0.7c46.2-16.2,74.1-46.9,89.4-69.8c19.4-29.1,25.1-54.8,24.2-65c-0.2-1.8-0.9-3.5-2-4.9 c-4.2-5.4-9.2-10.5-12.6-13.9c-4.5-4.4-5.1-11.5-1.3-16.6l5.8-7.6c2.4-3.2,7-3.9,10.3-1.4c0.4,0.3,0.7,0.6,1,0.9 c6.5,7.1,18.4,20.4,25.4,29.4c0.5,0.6,1.1,1.2,1.6,1.8c16.2,15.9,26.8,34.3,31.4,54.6c4.1,18.2,3.2,37.7-2.6,56.4 c-12.8,41.2-47.2,73.5-85.4,80.2C148.3,240.7,141,241.4,133.8,241.3L133.8,241.3z M173,38c3.5,3.5,8.7,8.8,13.1,14.4 c1.8,2.2,2.8,4.9,3.1,7.7c0.6,6.9-1.3,17.4-5.2,28.7c-4.5,13.2-11.4,26.9-19.9,39.7c-15.7,23.6-44.5,55.2-92.1,71.8 c-1.8,0.6-3.2,2-3.9,3.7c-0.7,1.8-0.6,3.7,0.3,5.4c4.4,8.6,16.1,16.6,31.3,21.4c16.9,5.4,36.3,6.5,54.8,3.3 c18-3.2,35.3-12.2,50-26.3c14.5-13.8,25.3-31.1,31.3-50.3c5.5-17.8,6.4-36.4,2.5-53.6c-4.4-19.3-14.5-36.8-29.9-52 c-0.8-0.7-1.5-1.5-2.1-2.4c-6.9-8.9-18.7-22-25.1-29.1c-0.4-0.4-1-0.7-1.6-0.7c-0.6,0-1.2,0.3-1.5,0.8l-5.8,7.6 C170,31.3,170.4,35.4,173,38L173,38z"/> <path fill="#621d49" d="M96.1,210.5c-6.1,0-12.4-0.3-19-1c-1.5-0.1-2.6-1.4-2.5-2.8c0.1-1.5,1.4-2.6,2.8-2.5c0,0,0.1,0,0.1,0 c6.4,0.6,12.5,0.9,18.4,0.9c32.5,0,58.2-9.2,76.6-27.6c8.7-8.6,15.7-19.3,21-31.7c4.3-10,7.4-21.2,9.3-33.2 c3.3-20.5,1.9-36.5,1.9-36.6c-0.1-1.5,0.9-2.8,2.4-2.9c1.5-0.1,2.8,0.9,2.9,2.4c0.1,0.7,1.5,16.8-1.9,38c-2,12.5-5.3,24-9.7,34.5 c-5.6,13.1-13,24.3-22.2,33.4C157,200.8,130,210.5,96.1,210.5L96.1,210.5z"/> <path fill="#621d49" d="M66,210.7c2.6,5.1,7.3,10.3,13.5,15c4.5-7.1,8-12.9,9-17.8c-4.1-7.5-11.1-12.3-11.1-12.3h0 c-2,0.8-4.1,1.6-6.2,2.3C66,199.7,63.5,205.8,66,210.7z"/></g>
</svg>