<?xml version="1.0" encoding="utf-8"?>
<!-- Svg Vector Icons : http://www.onlinewebfonts.com/icon -->
<!DOCTYPE svg PUBLIC "-//W3C//DTD SVG 1.1//EN" "http://www.w3.org/Graphics/SVG/1.1/DTD/svg11.dtd">
<svg version="1.1" xmlns="http://www.w3.org/2000/svg" xmlns:xlink="http://www.w3.org/1999/xlink" x="0px" y="0px" viewBox="0 0 256 256" enable-background="new 0 0 256 256" xml:space="preserve">
<metadata> Svg Vector Icons : http://www.onlinewebfonts.com/icon </metadata>
<g><g><g><path fill="#000000" d="M179.1,10.6c-3.1,0.6-10.3,2.6-11.5,3.3c-0.2,0.1,0.8,1.2,2.2,2.5c3.7,3.4,5.4,7.2,5.7,12.4c0.1,3,0,4.8-0.6,6.7c-1.6,5.1-6.2,9.9-11,11.7c-2,0.7-2.2,0.9-1.9,1.9c0.1,0.6,0.4,2.6,0.6,4.4c1,12.9-11,23.8-23.7,21.5c-3.7-0.6-7.1-2.1-9.3-4l-1.5-1.3l-1.9,2.1c-3.7,4-8.1,5.9-13.5,5.9c-1.9,0-4.3-0.3-5.6-0.7c-2.5-0.9-2.2-1.2-5.6,4.9c-7.9,13.9-14,28.7-17.8,43.1c-1.3,4.9-4.5,14.1-6.4,18.3c-0.6,1.4-1.8,3.3-2.6,4.3c-1.2,1.6-1.4,2.1-1.2,3.7c0.1,1.1,0.6,2.7,1,3.6l0.8,1.8L59.9,172c-8.4,8.4-15.3,15.2-15.5,15.2c-0.2,0-1.3-0.7-2.6-1.6c-3.9-2.9-6.7-3.7-11.9-3.7c-5.4,0-8.2,0.9-12,3.8c-2.9,2.2-5.5,5.6-6.8,8.9c-1.4,3.6-1.4,10.7,0,14.3c2,5.1,6.6,9.6,11.6,11.6c2,0.8,3.6,1,7.2,1l4.6,0l0,4.6c0,3.6,0.2,5.2,1,7.2c2,5.1,6.6,9.6,11.6,11.6c3.6,1.4,10.7,1.4,14.3,0c5.2-2.1,9.7-6.6,11.6-11.9c0.8-2.2,1.1-3.6,1-7.2c0-5-0.9-7.8-3.7-11.7c-0.9-1.2-1.6-2.4-1.5-2.5c0.1-0.2,7-7.2,15.4-15.5l15.2-15.1l2.1,0.9c2.7,1.2,4.1,1.2,6-0.2c3.6-2.7,14.4-6.9,24.9-9.7c11.5-3.1,21.7-7.1,33.7-13.2c37-18.7,67.9-48,76.6-72.5c2.5-7.1,3.1-10.7,3-18c0-5.8-0.2-7.3-1.2-11.3c-6-22.2-29.6-43.9-50.9-46.8C189.2,9.7,183.6,9.7,179.1,10.6z M73.8,193.2l-19,18.8l4.4,4.6c4.5,4.6,5.5,6.5,5.5,9.6c0,5.4-5,10.4-10.4,10.4c-5.3,0-10.3-4.8-10.4-9.8c0-1,0.9-5.5,2.1-10.1c1.2-4.6,2-8.4,1.9-8.5c-0.1-0.1-4,0.8-8.5,1.9c-4.6,1.2-9,2.1-9.7,2.1c-5.4,0-10.3-4.9-10.3-10.4c0-5.5,4.8-10.4,10.3-10.4c3.2,0,5,1.1,9.6,5.5l4.5,4.3l17-16.7c9.4-9.1,17.9-17.6,19.1-18.8l2-2.1l5.4,5.4l5.4,5.4L73.8,193.2z"/></g></g></g>
</svg>