<?xml version="1.0" encoding="utf-8"?>
<!-- Svg Vector Icons : http://www.onlinewebfonts.com/icon -->
<!DOCTYPE svg PUBLIC "-//W3C//DTD SVG 1.1//EN" "http://www.w3.org/Graphics/SVG/1.1/DTD/svg11.dtd">
<svg version="1.1" xmlns="http://www.w3.org/2000/svg" xmlns:xlink="http://www.w3.org/1999/xlink" x="0px" y="0px" viewBox="0 0 256 256" enable-background="new 0 0 256 256" xml:space="preserve">
<metadata> Svg Vector Icons : http://www.onlinewebfonts.com/icon </metadata>
<g> <path fill="#7fb92f" d="M18.9,71.4c-3.5,0-6.2,2.9-5.9,6.4c4.4,59.7,54.2,106.7,115,106.7c60.8,0,110.6-47.1,115-106.7 c0.2-3.4-2.5-6.4-5.9-6.4H18.9L18.9,71.4z"/> <path fill="#040000" d="M128,187.5c-30.1,0-58.7-11.3-80.7-31.8C25.5,135.3,12.2,107.8,10,78c-0.2-2.5,0.7-4.9,2.4-6.7 c1.7-1.8,4.1-2.8,6.5-2.8h218.2c2.5,0,4.9,1,6.5,2.8c1.7,1.8,2.5,4.3,2.4,6.7c-2.2,29.7-15.4,57.3-37.3,77.7 C186.8,176.2,158.1,187.5,128,187.5z M18.9,74.4c-0.8,0-1.6,0.3-2.1,1C16.2,76,16,76.8,16,77.6c2.1,28.2,14.7,54.4,35.4,73.8 c20.9,19.5,48.1,30.2,76.6,30.2c28.5,0,55.8-10.7,76.6-30.2c20.8-19.4,33.3-45.6,35.4-73.8c0.1-0.8-0.2-1.6-0.8-2.2 c-0.6-0.6-1.3-1-2.1-1H18.9z"/> <path fill="#ffffff" d="M21.4,74.2c4.1,55.3,50.3,99,106.7,99c56.4,0,102.6-43.6,106.7-99H21.4z"/> <path fill="#db453f" d="M32.8,74.2c2.6,50.3,44.2,90.4,95.2,90.4c51,0,92.7-40,95.2-90.4H32.8z"/> <path fill="#040000" d="M73.5,91.5c-0.6,0.2-6.7,2.3-7.6,6.9c-0.3,1.9,0.3,3.2,1.4,3.9c1.1,0.6,2.6,0.4,4.1-0.7 C74.9,98.4,73.7,92.2,73.5,91.5z M101.1,91.5c-0.6,0.2-6.7,2.3-7.6,6.9c-0.3,1.9,0.3,3.2,1.4,3.9c1.1,0.6,2.6,0.4,4.1-0.7 C102.5,98.4,101.3,92.2,101.1,91.5z M131.5,91.5c-0.6,0.2-6.7,2.3-7.6,6.9c-0.3,1.9,0.3,3.2,1.4,3.9c1.1,0.6,2.6,0.4,4.1-0.7 C132.9,98.4,131.6,92.2,131.5,91.5z M161.8,91.5c-0.6,0.2-6.7,2.3-7.6,6.9c-0.3,1.9,0.3,3.2,1.4,3.9c1.1,0.6,2.6,0.4,4.1-0.7 C163.2,98.4,162,92.2,161.8,91.5z M192.2,91.5c-0.6,0.2-6.7,2.3-7.6,6.9c-0.3,1.9,0.3,3.2,1.4,3.9c1.1,0.6,2.6,0.4,4.1-0.7 C193.5,98.4,192.3,92.2,192.2,91.5z M88.9,121.1C89,121.1,88.9,121.1,88.9,121.1c-0.6,0.2-6.7,2.3-7.6,6.9 c-0.3,1.9,0.3,3.2,1.4,3.9c1.1,0.6,2.6,0.4,4.1-0.7C90.3,128.1,89.1,121.8,88.9,121.1z M116.6,121.1c-0.6,0.2-6.7,2.3-7.6,6.9 c-0.3,1.9,0.3,3.2,1.4,3.9c1.1,0.6,2.6,0.4,4.1-0.7C117.9,128.1,116.7,121.8,116.6,121.1z M146.9,121.1c-0.6,0.2-6.7,2.3-7.6,6.9 c-0.3,1.9,0.3,3.2,1.4,3.9c1.1,0.6,2.6,0.4,4.1-0.7C148.3,128.1,147,121.8,146.9,121.1z M177.2,121.1c-0.6,0.2-6.7,2.3-7.6,6.9 c-0.3,1.9,0.3,3.2,1.4,3.9c1.1,0.6,2.6,0.4,4.1-0.7C178.6,128.1,177.4,121.8,177.2,121.1z"/></g>
</svg>